<svg xmlns="http://www.w3.org/2000/svg" xmlns:xlink="http://www.w3.org/1999/xlink" viewBox="0 0 446.35 136.23"><defs><style>.cls-1{fill:none;}.cls-2{isolation:isolate;}.cls-3{fill:#823349;}.cls-4{fill:#db9579;}.cls-5{fill:#9f3e59;}.cls-6{fill:#f0d4c9;}.cls-11,.cls-27,.cls-31,.cls-35,.cls-42,.cls-6,.cls-9{mix-blend-mode:multiply;}.cls-7{fill:#e6a185;}.cls-8{fill:#6eb7c2;}.cls-9{fill:#d1dee0;}.cls-10{fill:#1f0c11;}.cls-10,.cls-12,.cls-13,.cls-20,.cls-24,.cls-28,.cls-29,.cls-33,.cls-34,.cls-36,.cls-37,.cls-38,.cls-40,.cls-43{mix-blend-mode:screen;}.cls-11{fill:#f0c7d2;}.cls-12{fill:#4d1e2b;}.cls-13{fill:#4a3730;}.cls-14{fill:#963550;}.cls-15,.cls-24{fill:#662e1e;}.cls-16{clip-path:url(#clip-path);}.cls-17{mix-blend-mode:hard-light;fill:url(#radial-gradient);}.cls-18{fill:#b07261;}.cls-19{fill:#bf665a;}.cls-20{fill:#572e29;}.cls-21{fill:#2b231f;}.cls-22{fill:#943b3b;}.cls-23{fill:#fff;}.cls-25{fill:#5e4641;}.cls-26{fill:#3a544f;}.cls-27{fill:#bad9d3;}.cls-28{fill:#0e1413;}.cls-29{fill:#192422;}.cls-30{fill:#75449b;}.cls-31{fill:#b9b0bf;}.cls-32{fill:#b076d4;}.cls-33{fill:#503761;}.cls-34{fill:#261a2e;}.cls-35{fill:#ded3e6;}.cls-36{fill:#261b16;}.cls-37{fill:#402d25;}.cls-38{fill:#241b2b;}.cls-39{fill:#43756b;}.cls-40{fill:#5c453c;}.cls-41{fill:#dbdbdb;}.cls-42{fill:#c2afab;}.cls-43{fill:#211917;}</style><clipPath id="clip-path" transform="translate(-1.88 -312.05)"><path class="cls-1" d="M395,328.42c-4.42,8.24,6.38,18.75,8.85,17.68s8.5-5.71,8.85-10.63c0,0,3.37-.07,2.84-3.21s-3.72-.07-3.72-.07a9.31,9.31,0,0,0-6.2-6.94C400.18,323.29,396.66,325.42,395,328.42Z"/></clipPath><radialGradient id="radial-gradient" cx="452.33" cy="203.07" r="6.55" gradientTransform="matrix(1.78, -0.35, 0.09, 0.45, -423.67, 403.3)" gradientUnits="userSpaceOnUse"><stop offset="0" stop-color="#a16262"/><stop offset="1" stop-color="gray"/></radialGradient></defs><title>33365 [Converted]</title><g class="cls-2"><g id="people"><path class="cls-3" d="M385.87,405.65c-4.11-4-8-4.55-8.73-4.18s7.19,11.67,8.29,12.11,3.59-2.79,3.81-3.45S385.87,405.65,385.87,405.65Z" transform="translate(-1.88 -312.05)"/><path class="cls-4" d="M388.36,409.25a2.78,2.78,0,0,0,.33-.27,41.77,41.77,0,0,0-2.82-3.33c-.52-.49-1-.94-1.53-1.33C384.9,406.7,386.51,409.84,388.36,409.25Z" transform="translate(-1.88 -312.05)"/><path class="cls-3" d="M410.32,442.89c-5.59,1.14-8.28,4-8.39,4.82s13.69.69,14.67,0-.26-4.54-.68-5.1S410.32,442.89,410.32,442.89Z" transform="translate(-1.88 -312.05)"/><path class="cls-4" d="M410.32,442.89l-.2.05c0,.55,2.23,2.11,6.18.53a3.58,3.58,0,0,0-.38-.82C415.5,442.09,410.32,442.89,410.32,442.89Z" transform="translate(-1.88 -312.05)"/><path class="cls-5" d="M368.53,348.82c1,1.63.46,3.39.58,4.22l2.69.43a7.71,7.71,0,0,1,0-5A20.85,20.85,0,0,1,368.53,348.82Z" transform="translate(-1.88 -312.05)"/><path class="cls-4" d="M369.73,349.81c-1.13-3.51-2.57-2.63-4.19-2.92s-1.61-2.09-2.2-1.89-1.17.86-.36,2.18,1.68,1.11,1.54,1.33-3.3-.15-4.55-.15-4-.42-4.11.6,3.74,1.09,4.7,1.89.58,2.5,1.9,3.38,5.58.22,7.27-1.18A14.19,14.19,0,0,0,369.73,349.81Z" transform="translate(-1.88 -312.05)"/><path class="cls-6" d="M369.73,353.05a14.19,14.19,0,0,0,0-3.24c-1.13-3.51-2.57-2.63-4.19-2.92a1.79,1.79,0,0,1-.35-.1,6.1,6.1,0,0,0-1.79,1c.66.69,1.24.57,1.12.76a5.75,5.75,0,0,1-1.8,0,3.2,3.2,0,0,0,0,3.07,10.52,10.52,0,0,0,1.57,3A9.62,9.62,0,0,0,369.73,353.05Z" transform="translate(-1.88 -312.05)"/><path class="cls-6" d="M363.83,347.44l-.43.31c.66.69,1.24.57,1.12.76a2.31,2.31,0,0,1-1,.05,8.62,8.62,0,0,0,4.35,2.53A12.52,12.52,0,0,1,363.83,347.44Z" transform="translate(-1.88 -312.05)"/><path class="cls-7" d="M359.46,351.66c.09,1.4,3.44.59,4.54,0s.08-1.32-1.21-1.17S359.38,350.56,359.46,351.66Z" transform="translate(-1.88 -312.05)"/><path class="cls-7" d="M360.7,353.68c.25,1.18,3,.09,3.84-.54s-.09-1.13-1.16-.85S360.5,352.77,360.7,353.68Z" transform="translate(-1.88 -312.05)"/><path class="cls-7" d="M362.07,355.08c.33.95,2.51-.26,3.16-.88s-.2-.93-1.07-.58S361.81,354.32,362.07,355.08Z" transform="translate(-1.88 -312.05)"/><path class="cls-8" d="M420.64,370.82c-7.92,1.6-28.61,5.38-34.63,35.25l2.5,2.9s13.38-28,31-27.48c1.65.05,5.07,1.38,5.56,3.4-21.42,17-20.35,47.75-12.25,58.29l.31.09a18.19,18.19,0,0,0,2.58-.32c-1.39-6.85-6.56-40.68,23.69-55.41,0,0,7,.75,7.78-7.88C447.2,379.66,439.57,372.45,420.64,370.82Z" transform="translate(-1.88 -312.05)"/><path class="cls-9" d="M444.27,377.58A19.86,19.86,0,0,1,432,386.14c-6.4,6.46-12.46,13.11-15.44,21.54-3.53,10.59-5.57,24.14-2.7,35.53.62-.06,1.23-.15,1.83-.26-1.39-6.85-6.56-40.68,23.69-55.41,0,0,7,.75,7.78-7.88A19.25,19.25,0,0,0,444.27,377.58Z" transform="translate(-1.88 -312.05)"/><path class="cls-9" d="M419.53,381.49a8.34,8.34,0,0,1,4.42,1.76,4.2,4.2,0,0,0-.13-2.78c-1.11-2.78-5-3.34-7.77-2.23-13.61,3.53-24.93,14.83-29.81,28.1l2.27,2.63S401.89,381,419.53,381.49Z" transform="translate(-1.88 -312.05)"/><path class="cls-9" d="M428.82,379.35a82.92,82.92,0,0,0,8.36-5.07c-1.09-.4-2.27-.79-3.56-1.15-3,1.69-5.93,3.41-8.93,5.1C425.79,379.9,427.3,379.86,428.82,379.35Z" transform="translate(-1.88 -312.05)"/><path class="cls-9" d="M447.2,379.66s-7.63-7.21-26.56-8.84l-1.61.33A54.22,54.22,0,0,1,429.38,376a61.86,61.86,0,0,1,11.47,11.46C442.94,387.19,446.65,385.8,447.2,379.66Z" transform="translate(-1.88 -312.05)"/><path class="cls-3" d="M372.51,348.11c-1.42,0-2.59,5.32-.29,6.34,8.73,3.89,24.8,5.14,37.46,1.88,0,0-.4-11.46-2-13.87C407.71,342.46,396.75,347.53,372.51,348.11Z" transform="translate(-1.88 -312.05)"/><path class="cls-10" d="M407.71,342.46s-5.48,2.52-17.22,4.22a21.12,21.12,0,0,0,1.95,5.62,57.16,57.16,0,0,0,16.72-3.2C408.86,346.3,408.39,343.51,407.71,342.46Z" transform="translate(-1.88 -312.05)"/><path class="cls-10" d="M390.21,352.36l.79,0a21.13,21.13,0,0,1-1.36-3.64A24.68,24.68,0,0,0,390.21,352.36Z" transform="translate(-1.88 -312.05)"/><path class="cls-10" d="M372.51,348.11c-.49,0-.94.66-1.24,1.53a64.47,64.47,0,0,0,17.53,2.71,28.25,28.25,0,0,1-.65-5.36A152.51,152.51,0,0,1,372.51,348.11Z" transform="translate(-1.88 -312.05)"/><path class="cls-11" d="M407.71,342.46A37,37,0,0,1,403.3,344a14.3,14.3,0,0,0-1.63,13.76,57,57,0,0,0,8-1.43S409.28,344.87,407.71,342.46Z" transform="translate(-1.88 -312.05)"/><path class="cls-5" d="M405,342.37c-3.68,1.76-5.44,13.62,4.65,19.78s8.54,9.18,8.54,9.18,18.07,3.56,27.85,15.48c0,0,6.26-12.43-2.54-23.75s-11.89-20.69-11.89-20.69S420.66,334.92,405,342.37Z" transform="translate(-1.88 -312.05)"/><path class="cls-11" d="M440.3,358.64a20,20,0,0,1-6.48,5.72c-4.35,2.61-10.73,1.82-15.17-1.85,5.73,9.61,20.92,16.6,27.94,9.07a9.59,9.59,0,0,0,.79-1,21.89,21.89,0,0,0-3.85-7.5C442.35,361.54,441.28,360.06,440.3,358.64Z" transform="translate(-1.88 -312.05)"/><path class="cls-12" d="M411.58,355.38c5.53,1,10.59-2.77,13.6-7.11a32.56,32.56,0,0,0,2.15-3.6c-1.46-.3-2.94-.55-4.42-.74-.53,3.58-2.61,7.69-6.12,9.05-5.67,2.21-11.33-3.2-11.18-8.72-.87.15-1.74.31-2.59.5a9.87,9.87,0,0,0-.51,1.48C403.92,350.49,407.32,354.63,411.58,355.38Z" transform="translate(-1.88 -312.05)"/><path class="cls-12" d="M428.77,351.73a31.6,31.6,0,0,0,2.82-6c-.73-.2-1.47-.4-2.21-.57a24,24,0,0,1-7,8.76c-4.06,3.08-9.95,5-14.54,1.81a19.65,19.65,0,0,1-5.69-6,14.26,14.26,0,0,0,.69,4C410.16,361.07,422.88,361.37,428.77,351.73Z" transform="translate(-1.88 -312.05)"/><path class="cls-12" d="M419.62,363.77a24.28,24.28,0,0,0,2.34-.72c-.76-.63-1.54-1.25-2.34-1.83a31.55,31.55,0,0,1,5.33.51,22.71,22.71,0,0,0,7.85-6.84,40.11,40.11,0,0,0,2.63-4.22c-.79-1.48-1.45-2.81-2-3.94a25.83,25.83,0,0,1-5.16,8.88c-6.37,6.9-16.09,6.91-23.32,2.29a16.32,16.32,0,0,0,4.71,4.25l.19.12,1.58,1A13.65,13.65,0,0,0,419.62,363.77Z" transform="translate(-1.88 -312.05)"/><path class="cls-12" d="M423.43,364.38a19.89,19.89,0,0,1-5.35,1.38,16.47,16.47,0,0,1-3.29,0,15,15,0,0,1,2.48,2.58,15.7,15.7,0,0,0,8.59-1.25A23.15,23.15,0,0,0,423.43,364.38Z" transform="translate(-1.88 -312.05)"/><path class="cls-12" d="M420.21,370.07c2.82.73,5.67,1.5,8.41,2.47a15.65,15.65,0,0,0-1.93-4.26A19.78,19.78,0,0,1,420.21,370.07Z" transform="translate(-1.88 -312.05)"/><path class="cls-12" d="M437.91,355c-.53-.86-1-1.69-1.48-2.49a29.34,29.34,0,0,1-4.7,6.32,27.28,27.28,0,0,1-4.33,3.5,25.77,25.77,0,0,1,3.68,1.35,31.52,31.52,0,0,0,6.09-7.42C437.43,355.8,437.66,355.38,437.91,355Z" transform="translate(-1.88 -312.05)"/><path class="cls-12" d="M438.93,356.58a39.53,39.53,0,0,1-3.27,4.67,26.68,26.68,0,0,1-3.05,3.15c.59.33,1.17.68,1.74,1.06,2.77-1.35,4.38-4.36,5.23-7.89C439.36,357.23,439.14,356.91,438.93,356.58Z" transform="translate(-1.88 -312.05)"/><path class="cls-7" d="M407.3,345.3c.22,5.69,4.57,6.42,6.85,5.95,3.78-.78,5.11-4.09,5-7.35C419.11,343.9,414.05,342.46,407.3,345.3Z" transform="translate(-1.88 -312.05)"/><path class="cls-6" d="M408.65,344.78c-.44.16-.89.33-1.35.52.16,4,2.32,5.52,4.39,5.94A8.59,8.59,0,0,1,408.65,344.78Z" transform="translate(-1.88 -312.05)"/><path class="cls-7" d="M417.19,359.8c.52-3.52-.32-4-1.18-5.57-.36-.66-.31-2.05-.77-1.76a3.64,3.64,0,0,0-.32,3.65c.73,1.26-1.79-.57-2.44-1.74s0-1.76-.35-2.35c-.49-.82-1.6.51-.87,2.64s.59,1.78,0,1.18a5.69,5.69,0,0,1-.89-3.09c0-.73-1.76.22-1.17,2.06a5.32,5.32,0,0,0,1.54,2.56c.44.59-1.69-.87-2.13-2.12s-1.54.66,0,2.05c.73.66,1.32,1,1.39,1.32s-1.92.17-2-1-1.54.45,0,1.62a18.83,18.83,0,0,0,9,3.59l1.23-2.2Z" transform="translate(-1.88 -312.05)"/><path class="cls-13" d="M411.57,356.18l-.31-.33a5.69,5.69,0,0,1-.89-3.09c0-.73-1.76.22-1.17,2.06a5.32,5.32,0,0,0,1.54,2.56c.44.59-1.69-.87-2.13-2.12s-1.54.66,0,2.05c.73.66,1.32,1,1.39,1.32s-1.92.17-2-1-1.54.45,0,1.62a16.67,16.67,0,0,0,3.22,1.92A5.4,5.4,0,0,1,411.57,356.18Z" transform="translate(-1.88 -312.05)"/><path class="cls-13" d="M412.75,354.76l-.14-.19a2.14,2.14,0,0,1-.13-.19c-.64-1.18,0-1.76-.35-2.35-.49-.82-1.6.51-.87,2.64l.43,1.3A5.49,5.49,0,0,1,412.75,354.76Z" transform="translate(-1.88 -312.05)"/><path class="cls-6" d="M418.22,360.61l-1-.81c.07-.45.11-.86.14-1.22a6.45,6.45,0,0,0-3.5,2.45,3.84,3.84,0,0,0-.2,1,25.17,25.17,0,0,0,3.36.77Z" transform="translate(-1.88 -312.05)"/><path class="cls-14" d="M419.12,360.17l-1.49-.8s-2.88.73-1.81,3.44c.27.71,2.4,1.87,2.4,1.87S417.17,363.25,419.12,360.17Z" transform="translate(-1.88 -312.05)"/><path class="cls-3" d="M431.64,342.37c-4.65-1.65-8.8,3.55-4,10.06,3.79,5.09,6.46,7.65,3.82,9s-7.49-2-12-2c0,0-4.46,1.88-1.31,5.93,0,0,16.36,8.87,23.69,4.84S437.22,344.35,431.64,342.37Z" transform="translate(-1.88 -312.05)"/><path class="cls-10" d="M436.34,359.72c-.76-3.36-2.75-6.45-4.74-9.24-1.11-2.22-2.22-5-1.67-7.77.06-.23.13-.43.2-.63-3.94-.19-6.75,4.56-2.45,10.35a61.91,61.91,0,0,1,4.44,6.14A12.18,12.18,0,0,1,436.34,359.72Z" transform="translate(-1.88 -312.05)"/><path class="cls-10" d="M430,361.85c2.47.87,6.52,2.52,6.63,1.95a2.85,2.85,0,0,0,0-.29A8.18,8.18,0,0,0,430,361.85Z" transform="translate(-1.88 -312.05)"/><path class="cls-10" d="M418.22,365.3a61.34,61.34,0,0,0,14.17,5.35,40.29,40.29,0,0,1-15.15-9C416.93,362.58,417,363.79,418.22,365.3Z" transform="translate(-1.88 -312.05)"/><path class="cls-15" d="M417.93,331a3.19,3.19,0,1,1-3.18-3.19A3.18,3.18,0,0,1,417.93,331Z" transform="translate(-1.88 -312.05)"/><path class="cls-4" d="M415.63,344.94c-.94-1.41-3.71-5-4.82-7.54l-5,3.81c1.44,3.38,4.24,7.56,6.06,7.3S416.57,346.35,415.63,344.94Z" transform="translate(-1.88 -312.05)"/><path class="cls-6" d="M412.72,341.59l.2-.54a27.45,27.45,0,0,1-2.11-3.65l-5,3.81a24.31,24.31,0,0,0,2.32,4.23A6.22,6.22,0,0,0,412.72,341.59Z" transform="translate(-1.88 -312.05)"/><path class="cls-7" d="M395,328.42c-4.42,8.24,6.38,18.75,8.85,17.68s8.5-5.71,8.85-10.63c0,0,3.37-.07,2.84-3.21s-3.72-.07-3.72-.07a9.31,9.31,0,0,0-6.2-6.94C400.18,323.29,396.66,325.42,395,328.42Z" transform="translate(-1.88 -312.05)"/><path class="cls-13" d="M397.86,325.48a7.44,7.44,0,0,0-2.82,2.94c-4.42,8.24,6.38,18.75,8.85,17.68a10.7,10.7,0,0,0,1.09-.57c-.38-.18-.76-.37-1.15-.6A15.89,15.89,0,0,1,397.86,325.48Z" transform="translate(-1.88 -312.05)"/><g class="cls-16"><path class="cls-17" d="M412.43,333.65c.32,1.64-4.64,4-11.09,5.27s-11.93,1-12.25-.66,4.63-4,11.08-5.27S412.11,332,412.43,333.65Z" transform="translate(-1.88 -312.05)"/></g><path class="cls-6" d="M411.86,332.19a9.31,9.31,0,0,0-6.2-6.94c-5.48-2-9,.17-10.62,3.17a9.7,9.7,0,0,0-.51,7.62H395c.48-1,1.39-1.94,1.24-3.28a4.1,4.1,0,0,0,3.49-2.89,2.79,2.79,0,0,0,2.18-1.47c1.63,2.65,4.87,4.25,7.93,3a5.37,5.37,0,0,1,.7,2.67,4.5,4.5,0,0,0,1.72-2.17A4,4,0,0,0,411.86,332.19Z" transform="translate(-1.88 -312.05)"/><path class="cls-18" d="M412.57,332.41a2.36,2.36,0,0,1,.17.5c.69-.5.91.8.13,1a4.73,4.73,0,0,1,0,.82C414.75,333.64,414.2,331.26,412.57,332.41Z" transform="translate(-1.88 -312.05)"/><path class="cls-15" d="M403.15,334.18a1.52,1.52,0,0,1-.34-1.27,1.5,1.5,0,0,1,.37-.73,1.53,1.53,0,0,1,.83-.39,1.7,1.7,0,0,1,1.77,1.84l-.06,0a2.62,2.62,0,0,0-.67-.84,1.33,1.33,0,0,0-1-.34.9.9,0,0,0-.76.62,2.42,2.42,0,0,0-.1,1.07Z" transform="translate(-1.88 -312.05)"/><path class="cls-15" d="M397.41,335.35a2.6,2.6,0,0,0-.65-.59,1.11,1.11,0,0,0-.81-.18.79.79,0,0,0-.61.51,1.21,1.21,0,0,0,0,.84l-.06,0a1,1,0,0,1-.45-1.06,1.17,1.17,0,0,1,.33-.63,1.29,1.29,0,0,1,.67-.36,1.41,1.41,0,0,1,1.22.4,1.39,1.39,0,0,1,.41,1Z" transform="translate(-1.88 -312.05)"/><path class="cls-19" d="M398.76,331.92c-.26.67.43,2.82-.26,4.95-1,3.05,3,.22,3,.22C401.06,334.94,399.38,330.33,398.76,331.92Z" transform="translate(-1.88 -312.05)"/><path class="cls-20" d="M399.58,337a10.55,10.55,0,0,0-.59-1.66,4.85,4.85,0,0,1-.17,1.81c-.33,1,.3.9.9.62C399.68,337.5,399.63,337.24,399.58,337Z" transform="translate(-1.88 -312.05)"/><path class="cls-21" d="M405.57,338.37a18,18,0,0,1-6.23.7,4.83,4.83,0,0,1-.12.85,4,4,0,0,1,1.19,2c1.23,3.41,4.47.29,5.2-3.42Z" transform="translate(-1.88 -312.05)"/><path class="cls-22" d="M400.39,341.83a.32.32,0,0,1,0,.09c.88,2.43,2.77,1.54,4.06-.52a4.1,4.1,0,0,0-.55-.71A2.8,2.8,0,0,0,400.39,341.83Z" transform="translate(-1.88 -312.05)"/><path class="cls-23" d="M405.57,338.37a17.63,17.63,0,0,1-6.86.64c-.16.52-.32,1-.47,1.56a9.68,9.68,0,0,0,7-.78,4.23,4.23,0,0,0,.34-1.29Z" transform="translate(-1.88 -312.05)"/><path class="cls-18" d="M405,338.16a17.85,17.85,0,0,1-3.47.73,15.41,15.41,0,0,1-4.18-.09,15.56,15.56,0,0,0,4.2.46,18.42,18.42,0,0,0,4.23-.58A3,3,0,0,1,405,338.16Z" transform="translate(-1.88 -312.05)"/><path class="cls-18" d="M404.34,337.4a9.47,9.47,0,0,0,1.41.74c.48.22,1,.37,1.49.55l0,.06a2.28,2.28,0,0,1-.88.1,2.58,2.58,0,0,1-.82-.19,2.74,2.74,0,0,1-.71-.47,2,2,0,0,1-.5-.74Z" transform="translate(-1.88 -312.05)"/><path class="cls-18" d="M403.12,343.87a1,1,0,0,1-.19.7,1,1,0,0,1-.55.35,1,1,0,0,1-.7-.1.76.76,0,0,1-.41-.64l0-.06a1.18,1.18,0,0,0,.9.08,2.27,2.27,0,0,0,.87-.39Z" transform="translate(-1.88 -312.05)"/><path class="cls-15" d="M401.46,329.16c-.55,0-.19,1.06-.19,1.63,1.1.09,4.14-.57,6.25.51C407.24,329.46,403.09,329,401.46,329.16Z" transform="translate(-1.88 -312.05)"/><path class="cls-15" d="M393.34,334.4a15.75,15.75,0,0,1,3.75-2.59c.4-.16.28-1.6-.43-1.5C395.5,330.47,392.27,335.3,393.34,334.4Z" transform="translate(-1.88 -312.05)"/><path class="cls-15" d="M409,328.33c-.11,1.89,1,4.08.63,7.16,2.19-.57,2.28-.91,2.2-3.3C411.81,330.9,409.09,327.29,409,328.33Z" transform="translate(-1.88 -312.05)"/><path class="cls-15" d="M415.59,323.73a4.14,4.14,0,0,0,.25-1.41,4.31,4.31,0,0,0-1-2.76,3,3,0,0,0,.27-1.23,2.91,2.91,0,0,0-4.09-2.67,4.64,4.64,0,0,0-8.69-1,3.06,3.06,0,0,0-4,1.3,4.64,4.64,0,0,0-7.29,5.42,3.89,3.89,0,0,0-1.59,7.17,1.31,1.31,0,0,0-.41,1,1.35,1.35,0,0,0,.94,1.29,2.42,2.42,0,0,0-.16.85,2.53,2.53,0,0,0,5.05,0,2.6,2.6,0,0,0-.15-.84,2.34,2.34,0,0,0,2.14-1.45,3.44,3.44,0,0,0,.46,0,3.63,3.63,0,0,0,3.51-2.71,2.66,2.66,0,0,0,.85.15,2.75,2.75,0,0,0,1.82-.7,3.81,3.81,0,0,0,3.8,3.53,3.93,3.93,0,0,0,1.29-.22,2.88,2.88,0,0,0,5.46.37,3.36,3.36,0,0,0,1.54-6.08Z" transform="translate(-1.88 -312.05)"/><path class="cls-24" d="M415.8,323.9a7.5,7.5,0,0,1,.26,2.4,4.62,4.62,0,0,1-1.6,3.42,3.34,3.34,0,0,0,1.34-5.82Z" transform="translate(-1.88 -312.05)"/><path class="cls-24" d="M392.25,326.65c-.74-2.06-.1-5.24,1.17-6.52,2.07-2.1,5.28-3,7.59-1.76,1-2.05,3-3.6,5.45-3.15,2.75.5,3.65,2.19,4.06,4.34,2.33-.52,4.33,1.44,5.15,3.92a4.07,4.07,0,0,0,.17-1.16,4.31,4.31,0,0,0-1-2.76,3,3,0,0,0,.27-1.23,2.91,2.91,0,0,0-4.09-2.67,4.64,4.64,0,0,0-8.69-1,3.06,3.06,0,0,0-4,1.3,4.64,4.64,0,0,0-7.29,5.42,3.89,3.89,0,0,0-1.59,7.17,1.31,1.31,0,0,0-.41,1,1.35,1.35,0,0,0,.94,1.29,2.42,2.42,0,0,0-.16.85,2.52,2.52,0,0,0,2.53,2.52,2.65,2.65,0,0,0,.84-.15C391,332.11,390.35,328.54,392.25,326.65Z" transform="translate(-1.88 -312.05)"/><path class="cls-25" d="M104.79,363.31a6.41,6.41,0,0,0,5.18,1.06s2.49-12.6,1.28-14S106.31,357.36,104.79,363.31Z" transform="translate(-1.88 -312.05)"/><path class="cls-25" d="M125.51,401.65a6.43,6.43,0,0,0,1.12,5.17s12.53-2.82,13.34-4.5S131.57,400.64,125.51,401.65Z" transform="translate(-1.88 -312.05)"/><polygon class="cls-4" points="94.76 44.73 104.46 48.5 103.97 50.41 95.07 48.13 94.76 44.73"/><polygon class="cls-4" points="125.05 80.23 126.92 90.46 124.8 90.27 122.31 82.27 125.05 80.23"/><path class="cls-26" d="M104.78,378.69c-18.21,2.6-22.46,19.95-22.46,19.95-2.67-.41-4.06-5.06-4.06-5.06s-1-.78,1.14-17.48c2.38-18.48,18-16.17,18-16.17l-.07-3.34C66.82,345.83,70.24,388.08,71,405.41l8.3,13.06c9.73-1.21,7.94-10.12,7.94-10.12S90.94,389.5,104,386.17s20.49,9.45,20.49,9.45l3.28-2.72S123,376.08,104.78,378.69Z" transform="translate(-1.88 -312.05)"/><path class="cls-27" d="M122.68,393.16a19.74,19.74,0,0,1,1.79,2.46l3.28-2.72a18,18,0,0,0-.88-2.27A32.62,32.62,0,0,0,122.68,393.16Z" transform="translate(-1.88 -312.05)"/><path class="cls-27" d="M93.22,360a16.4,16.4,0,0,1,4.17-.09l-.07-3.34a32.73,32.73,0,0,0-4.23-1.2A32.35,32.35,0,0,1,93.22,360Z" transform="translate(-1.88 -312.05)"/><path class="cls-27" d="M78,407.29c-2.59-2.6-4.93-5.42-7.28-8.23.09,2.34.2,4.49.28,6.35l8.3,13.06c4.22-.52,6.28-2.5,7.25-4.57A43.43,43.43,0,0,1,78,407.29Z" transform="translate(-1.88 -312.05)"/><path class="cls-28" d="M74.43,410.85l2.87,4.5c.64-4.62,1.44-9.19,2.12-13.9C76.41,404,75.1,407.28,74.43,410.85Z" transform="translate(-1.88 -312.05)"/><path class="cls-29" d="M123.65,391.27c.82.94,1.66,1.94,2.47,3l1.63-1.35s-3.36-11.89-15.26-14.13a5.06,5.06,0,0,0,.39,2.68C117.11,383.65,120.81,388,123.65,391.27Z" transform="translate(-1.88 -312.05)"/><path class="cls-29" d="M81.77,362.81c-6.69,4.71-9.12,29.27-6,34.13,1.26,2,4,1.33,4.8.69a11.26,11.26,0,0,1-2.26-4.05s-1-.78,1.14-17.48c2.38-18.48,18-16.17,18-16.17h0C92.51,359.26,85.85,359.94,81.77,362.81Z" transform="translate(-1.88 -312.05)"/><path class="cls-29" d="M90.85,394.39a50.15,50.15,0,0,0-9.48,19.33c-.38,1.51-.72,3-1,4.57,8.5-1.72,6.85-9.94,6.85-9.94S90.94,389.5,104,386.17a18.9,18.9,0,0,1,2.23-.42C100.92,384,93.84,390.73,90.85,394.39Z" transform="translate(-1.88 -312.05)"/><path class="cls-4" d="M44.7,392,42,396.94c7,5,17.44,6.58,17.44,6.58C53.64,401.69,47.16,394.67,44.7,392Z" transform="translate(-1.88 -312.05)"/><path class="cls-6" d="M52.73,401.65c-2.43-1.83-5.14-3.82-6.79-6.42a.76.76,0,0,1,.71-1.14c-.79-.81-1.45-1.53-1.95-2.06L42,396.94a38.69,38.69,0,0,0,11.46,5.21Z" transform="translate(-1.88 -312.05)"/><path class="cls-30" d="M29.51,390.74,42,396.94s4-2.21,5-4.82C47,392.12,40.33,383.76,29.51,390.74Z" transform="translate(-1.88 -312.05)"/><path class="cls-31" d="M42.49,392.66c-4.18-2.66-8.12-2.61-12.82-2l-.16.1L42,396.94a17.31,17.31,0,0,0,3.15-2.3A24,24,0,0,0,42.49,392.66Z" transform="translate(-1.88 -312.05)"/><path class="cls-32" d="M80.35,413.71c-3.09-3.55-6.11-7.24-9-10.94a29.58,29.58,0,0,1-2.12-3c-5.07,1.81-13.17,3.44-20-.91-10.79-6.92-20.68-13.71-29.77-6.7S13.74,416.43,33.94,423c19.6,6.35,37.85,3.41,49.91-5.44Q82.07,415.66,80.35,413.71Z" transform="translate(-1.88 -312.05)"/><path class="cls-31" d="M68.2,402.61c1.3,1.79,2.54,3.62,3.84,5.4a92.63,92.63,0,0,0,7.48,9.17c.64.67,1.29,1.32,2,2,.82-.51,1.61-1.05,2.38-1.61q-1.78-1.87-3.5-3.82c-3.09-3.55-6.11-7.24-9-10.94a29.58,29.58,0,0,1-2.12-3c-.79.28-1.66.56-2.59.81C67.16,401.23,67.7,401.92,68.2,402.61Z" transform="translate(-1.88 -312.05)"/><path class="cls-33" d="M47.34,408.8a14.15,14.15,0,0,1,3.24-2,18.59,18.59,0,0,0-9.25,8.24l.65.25A23.26,23.26,0,0,1,47.34,408.8Z" transform="translate(-1.88 -312.05)"/><path class="cls-33" d="M48.45,411.94a22.59,22.59,0,0,0-3.54,4.43,88.24,88.24,0,0,0,9,2.52,14,14,0,0,0,.79-3.6c.27-1.42.53-2.84.74-4.26.14-.91.27-1.81.39-2.72C53.17,409,50.61,409.85,48.45,411.94Z" transform="translate(-1.88 -312.05)"/><path class="cls-33" d="M51.16,403.16a17.54,17.54,0,0,1-2.86-1.46,106.27,106.27,0,0,0-12.55-7.38c-2.6,4.32-5.45,8.5-8.15,12.76a50.15,50.15,0,0,0,10.85,6.73,15.86,15.86,0,0,1,1.19-2C42.3,408.14,46.49,404.4,51.16,403.16Z" transform="translate(-1.88 -312.05)"/><path class="cls-34" d="M30.23,399.47a16.24,16.24,0,0,0-1.42,6.38c.08,2.41,1.12,5.5,3.91,6,5.11.87,7.8-3.48,10.56-6.84,2.15-2.62,4.22-2.69,7.32-1.81A23.93,23.93,0,0,0,64.79,403a25.16,25.16,0,0,0,5-2.29c-.21-.32-.42-.64-.61-1-5.07,1.81-13.17,3.44-20-.91C40.56,393.24,34.11,389.84,30.23,399.47Z" transform="translate(-1.88 -312.05)"/><path class="cls-35" d="M52.42,418.82c1.28-4.14,1.4-11.95,1.68-16.28a14.24,14.24,0,0,0-2.32,4.09c-.17,1-1.17.85-2-.12a27,27,0,0,0,0,8.55c-6.31,8.75-21.3,4.85-24.15,4.15A37.1,37.1,0,0,0,33.94,423a69.33,69.33,0,0,0,15.12,3.14A33.11,33.11,0,0,0,52.42,418.82Z" transform="translate(-1.88 -312.05)"/><path class="cls-31" d="M24.64,401.52c4.05-1.53,5.93-6.32,2.63-9.7a12.62,12.62,0,0,0-2.88-2.21,13.83,13.83,0,0,0-4.92,2.5,12,12,0,0,0-4.42,7C17.53,401.58,20.87,402.94,24.64,401.52Z" transform="translate(-1.88 -312.05)"/><path class="cls-35" d="M37.13,423.25c-4.83-2.74-7.59-6.59-10.65-11.08-1.68-2.47-8.89-16.32-11.41-7.4,0,0-.08.06-.12.08,1.26,6.92,7.29,14.33,19,18.12,2,.65,4,1.2,6,1.66C39,424.22,38,423.76,37.13,423.25Z" transform="translate(-1.88 -312.05)"/><path class="cls-7" d="M19.47,392.11A12,12,0,0,0,16.21,396c1.33,2.67,4.14,4.73,7.24,3.71,2.22-.73,4.1-2.56,3.25-5.06a6.12,6.12,0,0,0-4.51-3.93l-.38-.05A14.76,14.76,0,0,0,19.47,392.11Z" transform="translate(-1.88 -312.05)"/><path class="cls-4" d="M59.13,399.51c1.7-2.67,5.31-.88,6.36,1.14s2.51,5,1.49,4.63-1.39-2.85-1.81-1.94c0,0,.18,3.64-.63,4.64s-.46-.56-.89-2.3-.46-1.83-.57-1.4.14,3.82-.28,4.73-1-.43-1-2.57-.5-2.26-.5-2.26,0,2.51.14,3.68-2.18-.41-2-4.34c-1.5,1.24-2.3,1.65-1.32-.85C58.73,401,58.15,401.06,59.13,399.51Z" transform="translate(-1.88 -312.05)"/><path class="cls-6" d="M61,398.21a2.76,2.76,0,0,0-1.87,1.3c-1,1.55-.4,1.49-1.05,3.16-1,2.47-.19,2.1,1.27.89A10.09,10.09,0,0,1,61,398.21Z" transform="translate(-1.88 -312.05)"/><path class="cls-36" d="M65.49,400.65a4.45,4.45,0,0,0-1.19-1.4c-.32,1.19-1,1.56-2.15,2-2.24.86-2.15,4.91-1.38,6.69a1.09,1.09,0,0,1,0,.17c.36.28.63.21.58-.26-.15-1.17-.14-3.68-.14-3.68s.44.12.5,2.26.62,3.48,1,2.57.17-4.29.28-4.73.11-.43.57,1.4.08,3.29.89,2.3.63-4.64.63-4.64c.42-.91.8,1.59,1.81,1.94S66.54,402.67,65.49,400.65Z" transform="translate(-1.88 -312.05)"/><path class="cls-7" d="M59.49,405.4c-.53-1.06-.28.66-.33,1.2s.05-.54-.46-2.15-1.58-1.42-1-.24-.62,3.53-.65,2.55.59-1.92,0-3.73-1.36-.81-1.21-.31a13.84,13.84,0,0,1-.45,3.21c-.18,1.07-.73,1.76-1.16.11s.33-3.73-.63-3.24-.83,5.79-1.28,4.66-1.51-1.31-2.49-1.47,1,1.26,1.07,3.41a11.49,11.49,0,0,0,.93,3.94c.4,2.78-1.7,10.27-8.09,11.78s-20.14-7.92-20.14-7.92L22,423.79c4.39,3.8,16.68,9.53,24.72,8.07s10.45-17.27,10.45-17.27C59.75,411,60,406.46,59.49,405.4Z" transform="translate(-1.88 -312.05)"/><path class="cls-6" d="M23.4,424.28a29,29,0,0,0,.87-6.68c-.39-.25-.6-.4-.6-.4L22,423.79c.38.32.81.66,1.29,1C23.31,424.62,23.36,424.45,23.4,424.28Z" transform="translate(-1.88 -312.05)"/><path class="cls-37" d="M25.18,419.81a100.81,100.81,0,0,0,10.6,4.79c2.29.81,6.17,1.68,8.55.38l-.52.14c-6.39,1.51-20.14-7.92-20.14-7.92l-.48,1.86C24,419.38,24.8,419.63,25.18,419.81Z" transform="translate(-1.88 -312.05)"/><path class="cls-37" d="M59.49,405.4c-.53-1.06-.28.66-.33,1.2s.05-.54-.46-2.15-1.58-1.42-1-.24-.62,3.53-.65,2.55.59-1.92,0-3.73-1.36-.81-1.21-.31a13.84,13.84,0,0,1-.45,3.21c-.18,1.07-.73,1.76-1.16.11s.22-3.43-.45-3.3a10,10,0,0,0-.34,4.85c3.87-.61,5.33,5,2.09,7.54l-.16.1a35,35,0,0,1-2.54,11.63c3.15-5.13,4.25-12.27,4.25-12.27C59.75,411,60,406.46,59.49,405.4Z" transform="translate(-1.88 -312.05)"/><path class="cls-30" d="M15.69,401.34c-6.63,4.26-3.26,19.36,5.92,23.92a36,36,0,0,0,2.33-9.12S20.71,398.34,15.69,401.34Z" transform="translate(-1.88 -312.05)"/><path class="cls-38" d="M16.89,407.79a13.43,13.43,0,0,0,3.67,8.69,15.37,15.37,0,0,0,3,2.41,27.17,27.17,0,0,0,.42-2.75s-1.77-9.75-4.73-13.6C17.31,402.64,16.79,406.24,16.89,407.79Z" transform="translate(-1.88 -312.05)"/><path class="cls-39" d="M94.75,354.69l.45,5.91,2.72.69a21,21,0,0,0-.24-4.91Z" transform="translate(-1.88 -312.05)"/><path class="cls-39" d="M128.29,391.35l-5,3.22.69,2.72a21,21,0,0,0,4.21-2.56Z" transform="translate(-1.88 -312.05)"/><path class="cls-4" d="M24.86,393.52c-.86-1.94-3.19-4.69-4.61-7.73l-10.07-2.92c3.82,7.38,7.17,13,9.68,14.3S25.72,395.47,24.86,393.52Z" transform="translate(-1.88 -312.05)"/><path class="cls-6" d="M10.18,382.87q1.21,2.34,2.35,4.41c3.16,3.85,7.41,7.2,12,5.63-1-1.89-3-4.39-4.31-7.12Z" transform="translate(-1.88 -312.05)"/><path class="cls-25" d="M17.86,363.53c1.88-2,6.13,8.21,6.1,10.8s-3.42-4.5-7.16-6.66S17.86,363.53,17.86,363.53Z" transform="translate(-1.88 -312.05)"/><path class="cls-7" d="M11.34,381.63c-6.55-1.86-5.41,3.26,1.49,4Z" transform="translate(-1.88 -312.05)"/><path class="cls-18" d="M10.39,382.05c-2.27-.75-2.4,1.68,1.78,2.29Z" transform="translate(-1.88 -312.05)"/><path class="cls-7" d="M7.17,374.1c1.48,6.47,4.92,11.7,8.29,13.79,3.61,2.25,8.64,1.8,13,.34C37,385.42,30,382.51,30,382.51s-4.4-11.95-13.15-17.2C14.08,363.68,6.55,371.42,7.17,374.1Z" transform="translate(-1.88 -312.05)"/><path class="cls-6" d="M19.86,367.54a21.78,21.78,0,0,0-3.06-2.23c-2.72-1.63-10.25,6.11-9.63,8.79a28.06,28.06,0,0,0,3.92,9.28,21,21,0,0,1-.6-8.85C14.39,373.5,19,371.47,19.86,367.54Z" transform="translate(-1.88 -312.05)"/><path class="cls-40" d="M30,382.51s-4.35-11.83-13-17.12A37.7,37.7,0,0,1,24.48,382c3.27-.19,7.41,1.51,6.39,5.08,0,.08-.05.14-.07.22C35.46,384.79,30,382.51,30,382.51Z" transform="translate(-1.88 -312.05)"/><path class="cls-25" d="M11.63,377.21a19.49,19.49,0,0,0,2.58-3.06c1.69-2.28-.07-2.58-1.22-2.26S9.32,379.33,11.63,377.21Z" transform="translate(-1.88 -312.05)"/><path class="cls-25" d="M22.67,370.35c-.42-.28-4.21-2.84-5-1.81s-.84,2.53.68,2.15C20.75,370.1,24.11,371.32,22.67,370.35Z" transform="translate(-1.88 -312.05)"/><path class="cls-15" d="M21.83,374.17a2.61,2.61,0,0,1-.84-1,2.74,2.74,0,0,1-.21-.63,2.29,2.29,0,0,1,0-.39,1.33,1.33,0,0,1,.16-.6,1,1,0,0,1,.38-.4,1.26,1.26,0,0,1,.51-.15,1.43,1.43,0,0,1,.57.12,2.38,2.38,0,0,1,.57.4,3,3,0,0,1,.69,1.09l0,.08c-.34-.17-.67-.36-1-.54a4.52,4.52,0,0,0-.5-.23c-.17-.05-.35-.07-.4.06a1,1,0,0,0-.06.51,5.43,5.43,0,0,0,.06.55c.07.36.15.73.23,1.1Z" transform="translate(-1.88 -312.05)"/><path class="cls-15" d="M16.88,376.5a4.89,4.89,0,0,0-1.07-.64,1.16,1.16,0,0,0-.58-.06.65.65,0,0,0-.44.32,2.22,2.22,0,0,0-.25,1.18,8.72,8.72,0,0,0,.14,1.24l-.08,0a2.44,2.44,0,0,1-.78-1.25,2.38,2.38,0,0,1-.07-.77,1.89,1.89,0,0,1,.29-.9,1.73,1.73,0,0,1,.42-.44,1.44,1.44,0,0,1,1.6,0,2,2,0,0,1,.88,1.23Z" transform="translate(-1.88 -312.05)"/><path class="cls-21" d="M26.71,383.86a3.14,3.14,0,0,1-1.32,2.74c-1.48,1-5.44.09-6.81-3.9a14.84,14.84,0,0,0,5-2.82C24,383.83,26.71,383.86,26.71,383.86Z" transform="translate(-1.88 -312.05)"/><path class="cls-41" d="M18.58,382.7a7,7,0,0,0,.49,1.11,23.74,23.74,0,0,0,5.83-2.23,6.09,6.09,0,0,0-1.31-1.7A14.84,14.84,0,0,1,18.58,382.7Z" transform="translate(-1.88 -312.05)"/><path class="cls-22" d="M23.52,386.61a6.65,6.65,0,0,0,2.85-2.29v-.1S23.17,382.65,22,386A4.29,4.29,0,0,0,23.52,386.61Z" transform="translate(-1.88 -312.05)"/><path class="cls-41" d="M26.28,383.73A12.6,12.6,0,0,1,22,386.26a3.41,3.41,0,0,0,3.18.16A2.7,2.7,0,0,0,26.36,384Z" transform="translate(-1.88 -312.05)"/><path class="cls-18" d="M24.46,378.82a5.62,5.62,0,0,1-1.39,1.6,11,11,0,0,1-1.79,1.16c-1.27.64-2.6,1.12-3.91,1.64l0-.06a9.93,9.93,0,0,1,1.78-1.23c.3-.19.61-.34.91-.51s.62-.31.91-.48a9.42,9.42,0,0,0,.89-.47c.3-.14.58-.33.87-.49a13.41,13.41,0,0,0,1.69-1.19Z" transform="translate(-1.88 -312.05)"/><path class="cls-18" d="M26.51,386.86a3.2,3.2,0,0,0,.57-.53,2.81,2.81,0,0,0,.41-.66,3.58,3.58,0,0,0,.25-.74,4,4,0,0,0,.07-.78h.08a1.4,1.4,0,0,1,.4.89,1.76,1.76,0,0,1-.15.93,1.68,1.68,0,0,1-.62.73,1.3,1.3,0,0,1-1,.22Z" transform="translate(-1.88 -312.05)"/><path class="cls-19" d="M16.94,371.72c.59.25,5.9,3.68,7,5.19s-1.09.87-2.45,1.86S15.41,371.06,16.94,371.72Z" transform="translate(-1.88 -312.05)"/><path class="cls-20" d="M22.14,377.72c.88-.2,1.57-.22.92-1.13-.87-1.2-4.8-3.79-5.86-4.4C18.87,374,20.53,375.85,22.14,377.72Z" transform="translate(-1.88 -312.05)"/><path class="cls-25" d="M8.25,367c-6.82,1-10.76,6.72,1.93,15.89,2.62,1.89-1.79-2-1.8-8.21C8.37,370.76,11.18,366.57,8.25,367Z" transform="translate(-1.88 -312.05)"/><path class="cls-42" d="M8.25,367a12.87,12.87,0,0,0-2.24.54,4.37,4.37,0,0,0-.08.71,8.61,8.61,0,0,0,.49,3.18,11,11,0,0,0,2,3.36v-.11C8.37,370.76,11.18,366.57,8.25,367Z" transform="translate(-1.88 -312.05)"/><path class="cls-25" d="M7.53,369.3c5.16,3.14,13.56-1,13.63-9.48s-3.51-9.39-5.26-6.88S5.19,367.88,7.53,369.3Z" transform="translate(-1.88 -312.05)"/><path class="cls-43" d="M15.16,354,14,355.71c.64,1.6,1.54,3.15,1.49,4.89a11.78,11.78,0,0,1-1.87,6.17,20.79,20.79,0,0,1-1.95,2.51A12.72,12.72,0,0,0,15,365.74,10.4,10.4,0,0,0,15.16,354Z" transform="translate(-1.88 -312.05)"/><path class="cls-43" d="M16.41,352.35a11.65,11.65,0,0,1,1.25,12.85A17.58,17.58,0,0,1,13.83,370a10.35,10.35,0,0,0,7.33-10.17C21.23,352.1,18.26,350.65,16.41,352.35Z" transform="translate(-1.88 -312.05)"/></g></g></svg>