<svg xmlns="http://www.w3.org/2000/svg" viewBox="0 0 435.47 81.9"><defs><style>.cls-1{isolation:isolate;}.cls-2{fill:#5e4641;}.cls-3{fill:#db9579;}.cls-4{fill:#3a544f;}.cls-5{fill:#bad9d3;}.cls-10,.cls-14,.cls-28,.cls-5,.cls-8{mix-blend-mode:multiply;}.cls-6{fill:#0e1413;}.cls-12,.cls-13,.cls-16,.cls-17,.cls-18,.cls-21,.cls-27,.cls-29,.cls-6,.cls-7{mix-blend-mode:screen;}.cls-7{fill:#192422;}.cls-8{fill:#f0d4c9;}.cls-9{fill:#75449b;}.cls-10{fill:#b9b0bf;}.cls-11{fill:#b076d4;}.cls-12{fill:#503761;}.cls-13{fill:#261a2e;}.cls-14{fill:#ded3e6;}.cls-15{fill:#e6a185;}.cls-16{fill:#261b16;}.cls-17{fill:#402d25;}.cls-18{fill:#241b2b;}.cls-19{fill:#43756b;}.cls-20{fill:#b07261;}.cls-21{fill:#5c453c;}.cls-22{fill:#662e1e;}.cls-23{fill:#2b231f;}.cls-24{fill:#dbdbdb;}.cls-25{fill:#943b3b;}.cls-26{fill:#bf665a;}.cls-27{fill:#572e29;}.cls-28{fill:#c2afab;}.cls-29{fill:#211917;}.cls-30{fill:#fff;}</style></defs><title>bg</title><g class="cls-1"><g id="people"><path class="cls-2" d="M103.91,380.84a6.43,6.43,0,0,0,5.18,1.07s2.49-12.6,1.28-14S105.43,374.89,103.91,380.84Z" transform="translate(-1 -367.73)"/><path class="cls-2" d="M124.63,419.19a6.44,6.44,0,0,0,1.12,5.17s12.53-2.83,13.34-4.51S130.69,418.17,124.63,419.19Z" transform="translate(-1 -367.73)"/><polygon class="cls-3" points="94.76 6.58 104.46 10.35 103.97 12.26 95.07 9.98 94.76 6.58"/><polygon class="cls-3" points="125.05 42.08 126.92 52.31 124.8 52.12 122.31 44.13 125.05 42.08"/><path class="cls-4" d="M103.9,396.22c-18.21,2.6-22.46,20-22.46,20-2.67-.42-4.06-5.07-4.06-5.07s-1-.77,1.14-17.47c2.38-18.48,18-16.17,18-16.17l-.07-3.35C65.94,363.37,69.36,405.62,70.1,423L78.4,436c9.73-1.21,7.94-10.12,7.94-10.12S90.06,407,103.1,403.71s20.49,9.44,20.49,9.44l3.28-2.72S122.12,393.62,103.9,396.22Z" transform="translate(-1 -367.73)"/><path class="cls-5" d="M121.8,410.7a21.66,21.66,0,0,1,1.79,2.45l3.28-2.72a18,18,0,0,0-.88-2.27A32.69,32.69,0,0,0,121.8,410.7Z" transform="translate(-1 -367.73)"/><path class="cls-5" d="M92.34,377.56a15.85,15.85,0,0,1,4.17-.09l-.07-3.35a34.41,34.41,0,0,0-4.23-1.2A32.45,32.45,0,0,1,92.34,377.56Z" transform="translate(-1 -367.73)"/><path class="cls-5" d="M77.09,424.82c-2.59-2.6-4.93-5.42-7.27-8.23.09,2.34.2,4.5.28,6.36L78.4,436c4.22-.53,6.28-2.51,7.25-4.57A43.46,43.46,0,0,1,77.09,424.82Z" transform="translate(-1 -367.73)"/><path class="cls-6" d="M73.55,428.38l2.87,4.51c.64-4.62,1.44-9.2,2.12-13.91C75.53,421.51,74.22,424.81,73.55,428.38Z" transform="translate(-1 -367.73)"/><path class="cls-7" d="M122.77,408.81c.82.93,1.66,1.93,2.47,3l1.63-1.35s-3.36-11.88-15.26-14.12A5.06,5.06,0,0,0,112,399C116.23,401.18,119.93,405.54,122.77,408.81Z" transform="translate(-1 -367.73)"/><path class="cls-7" d="M80.89,380.35c-6.69,4.71-9.12,29.26-6,34.13,1.26,2,4,1.32,4.8.69a11.27,11.27,0,0,1-2.26-4.06s-1-.77,1.14-17.47c2.38-18.48,18-16.17,18-16.17h0C91.63,376.79,85,377.48,80.89,380.35Z" transform="translate(-1 -367.73)"/><path class="cls-7" d="M90,411.92a49.91,49.91,0,0,0-9.48,19.34c-.38,1.5-.72,3-1,4.57,8.49-1.72,6.85-9.94,6.85-9.94S90.06,407,103.1,403.71a17.06,17.06,0,0,1,2.23-.42C100,401.53,93,408.27,90,411.92Z" transform="translate(-1 -367.73)"/><path class="cls-3" d="M43.82,409.57l-2.74,4.91c7,5,17.44,6.58,17.44,6.58C52.76,419.23,46.28,412.21,43.82,409.57Z" transform="translate(-1 -367.73)"/><path class="cls-8" d="M51.85,419.18c-2.44-1.83-5.14-3.82-6.79-6.42a.75.75,0,0,1,.71-1.13c-.79-.81-1.46-1.53-2-2.06l-2.74,4.91a38.66,38.66,0,0,0,11.46,5.2Z" transform="translate(-1 -367.73)"/><path class="cls-9" d="M28.63,408.27l12.45,6.21s4.05-2.22,5-4.83C46.09,409.65,39.45,401.3,28.63,408.27Z" transform="translate(-1 -367.73)"/><path class="cls-10" d="M41.61,410.19c-4.18-2.65-8.12-2.61-12.82-2l-.16.09,12.45,6.21a17.9,17.9,0,0,0,3.15-2.3A24.08,24.08,0,0,0,41.61,410.19Z" transform="translate(-1 -367.73)"/><path class="cls-11" d="M79.47,431.24c-3.09-3.54-6.12-7.23-9-10.94a27.56,27.56,0,0,1-2.12-3.05c-5.08,1.81-13.18,3.44-20-.91-10.79-6.92-20.68-13.7-29.77-6.7S12.86,434,33.06,440.51c19.6,6.35,37.85,3.4,49.91-5.45Q81.19,433.2,79.47,431.24Z" transform="translate(-1 -367.73)"/><path class="cls-10" d="M67.32,420.15c1.3,1.78,2.53,3.62,3.84,5.4a91.11,91.11,0,0,0,7.48,9.16c.64.67,1.29,1.33,2,2,.82-.52,1.61-1.05,2.38-1.62q-1.78-1.86-3.5-3.82c-3.09-3.54-6.12-7.23-9-10.94a27.56,27.56,0,0,1-2.12-3.05c-.8.29-1.66.56-2.59.82C66.27,418.77,66.82,419.46,67.32,420.15Z" transform="translate(-1 -367.73)"/><path class="cls-12" d="M46.46,426.34a13.29,13.29,0,0,1,3.24-2,18.52,18.52,0,0,0-9.25,8.23l.65.25A23.36,23.36,0,0,1,46.46,426.34Z" transform="translate(-1 -367.73)"/><path class="cls-12" d="M47.57,429.47A22.59,22.59,0,0,0,44,433.9a88.83,88.83,0,0,0,9,2.53,14.07,14.07,0,0,0,.8-3.61c.26-1.41.52-2.83.74-4.26.14-.9.27-1.81.39-2.72C52.29,426.58,49.72,427.38,47.57,429.47Z" transform="translate(-1 -367.73)"/><path class="cls-12" d="M50.27,420.69a16.35,16.35,0,0,1-2.85-1.46,107.52,107.52,0,0,0-12.55-7.37c-2.6,4.32-5.45,8.49-8.15,12.75a49.77,49.77,0,0,0,10.85,6.73,15.75,15.75,0,0,1,1.19-2C41.42,425.67,45.61,421.93,50.27,420.69Z" transform="translate(-1 -367.73)"/><path class="cls-13" d="M29.35,417a16.27,16.27,0,0,0-1.42,6.38c.08,2.42,1.12,5.5,3.91,6,5.11.87,7.8-3.48,10.55-6.84,2.15-2.62,4.23-2.68,7.33-1.8a23.93,23.93,0,0,0,14.19-.22,25.36,25.36,0,0,0,5-2.28c-.21-.32-.41-.64-.6-1-5.08,1.81-13.18,3.44-20-.91C39.68,410.78,33.23,407.38,29.35,417Z" transform="translate(-1 -367.73)"/><path class="cls-14" d="M51.54,436.36c1.27-4.15,1.4-12,1.68-16.28,0-.08-2.09,2.72-2.32,4.08-.17,1-1.17.85-1.95-.12a27.3,27.3,0,0,0,0,8.56c-6.3,8.74-21.29,4.85-24.14,4.14a36.66,36.66,0,0,0,8.23,3.77,69.92,69.92,0,0,0,15.12,3.14A33.53,33.53,0,0,0,51.54,436.36Z" transform="translate(-1 -367.73)"/><path class="cls-10" d="M23.76,419.05c4-1.52,5.93-6.32,2.63-9.69a12.34,12.34,0,0,0-2.88-2.21,14,14,0,0,0-4.92,2.49,12.1,12.1,0,0,0-4.43,7C16.65,419.11,20,420.48,23.76,419.05Z" transform="translate(-1 -367.73)"/><path class="cls-14" d="M36.25,440.78c-4.83-2.73-7.6-6.58-10.65-11.08-1.68-2.47-8.89-16.31-11.41-7.4,0,.05-.08.06-.12.09,1.26,6.92,7.29,14.33,19,18.12,2,.65,4,1.19,6,1.65A27.63,27.63,0,0,1,36.25,440.78Z" transform="translate(-1 -367.73)"/><path class="cls-15" d="M18.59,409.64a11.85,11.85,0,0,0-3.26,3.85c1.33,2.66,4.14,4.72,7.24,3.7,2.22-.72,4.1-2.55,3.24-5.06a6.07,6.07,0,0,0-4.5-3.92l-.38-.06A15.8,15.8,0,0,0,18.59,409.64Z" transform="translate(-1 -367.73)"/><path class="cls-3" d="M58.25,417.05c1.7-2.68,5.31-.89,6.36,1.13s2.51,5,1.49,4.63-1.39-2.84-1.81-1.94c0,0,.18,3.65-.63,4.65s-.46-.57-.89-2.3-.46-1.84-.57-1.4.13,3.82-.29,4.73-1-.44-1-2.58-.5-2.25-.5-2.25,0,2.5.13,3.67-2.17-.4-2-4.33c-1.5,1.24-2.3,1.64-1.32-.86C57.84,418.54,57.26,418.6,58.25,417.05Z" transform="translate(-1 -367.73)"/><path class="cls-8" d="M60.11,415.75a2.72,2.72,0,0,0-1.86,1.3c-1,1.55-.41,1.49-1,3.15-1,2.48-.19,2.1,1.27.9A10.14,10.14,0,0,1,60.11,415.75Z" transform="translate(-1 -367.73)"/><path class="cls-16" d="M64.61,418.18a4.56,4.56,0,0,0-1.19-1.4c-.32,1.19-1,1.57-2.15,2-2.24.87-2.16,4.91-1.38,6.7a1,1,0,0,1,0,.16c.36.28.63.21.57-.26-.15-1.17-.13-3.67-.13-3.67s.43.11.5,2.25.62,3.49,1,2.58.18-4.3.29-4.73.11-.44.57,1.4.08,3.29.89,2.3.63-4.65.63-4.65c.42-.9.79,1.59,1.81,1.94S65.66,420.21,64.61,418.18Z" transform="translate(-1 -367.73)"/><path class="cls-15" d="M58.61,422.93c-.54-1.06-.28.67-.33,1.21s0-.54-.46-2.15-1.58-1.42-1-.24-.62,3.53-.65,2.54.58-1.91,0-3.72-1.36-.81-1.21-.31a14.41,14.41,0,0,1-.45,3.21c-.18,1.06-.73,1.75-1.17.11s.34-3.74-.62-3.25-.83,5.8-1.28,4.66S50,423.68,49,423.53s1,1.26,1.07,3.41a11.39,11.39,0,0,0,.93,3.93c.4,2.78-1.7,10.28-8.09,11.79s-20.14-7.93-20.14-7.93l-1.69,6.6c4.39,3.79,16.68,9.52,24.72,8.07s10.44-17.28,10.44-17.28C58.86,428.54,59.15,424,58.61,422.93Z" transform="translate(-1 -367.73)"/><path class="cls-8" d="M22.51,441.81a28.38,28.38,0,0,0,.88-6.67l-.6-.41-1.69,6.6c.38.32.81.66,1.29,1C22.43,442.16,22.48,442,22.51,441.81Z" transform="translate(-1 -367.73)"/><path class="cls-17" d="M24.3,437.35a105.08,105.08,0,0,0,10.6,4.79c2.29.81,6.17,1.67,8.55.37l-.52.15c-6.39,1.5-20.14-7.93-20.14-7.93l-.48,1.87C23.16,436.91,23.91,437.16,24.3,437.35Z" transform="translate(-1 -367.73)"/><path class="cls-17" d="M58.61,422.93c-.54-1.06-.28.67-.33,1.21s0-.54-.46-2.15-1.58-1.42-1-.24-.62,3.53-.65,2.54.58-1.91,0-3.72-1.36-.81-1.21-.31a14.41,14.41,0,0,1-.45,3.21c-.18,1.06-.73,1.75-1.17.11s.23-3.44-.44-3.31a10.19,10.19,0,0,0-.35,4.86c3.88-.62,5.34,5,2.1,7.53a.54.54,0,0,1-.16.1A35,35,0,0,1,52,444.39c3.15-5.12,4.24-12.27,4.24-12.27C58.86,428.54,59.15,424,58.61,422.93Z" transform="translate(-1 -367.73)"/><path class="cls-9" d="M14.81,418.88c-6.63,4.25-3.26,19.35,5.92,23.92a36,36,0,0,0,2.33-9.12S19.83,415.87,14.81,418.88Z" transform="translate(-1 -367.73)"/><path class="cls-18" d="M16,425.33A13.39,13.39,0,0,0,19.68,434a15.42,15.42,0,0,0,3,2.42,27.17,27.17,0,0,0,.42-2.75s-1.77-9.76-4.73-13.6C16.43,420.17,15.91,423.77,16,425.33Z" transform="translate(-1 -367.73)"/><path class="cls-19" d="M93.86,372.23l.46,5.9,2.71.7a21.38,21.38,0,0,0-.23-4.92Z" transform="translate(-1 -367.73)"/><path class="cls-19" d="M127.41,408.89l-5,3.22.69,2.72a21.32,21.32,0,0,0,4.2-2.56Z" transform="translate(-1 -367.73)"/><path class="cls-3" d="M24,411.06c-.86-1.95-3.19-4.7-4.61-7.74L9.3,400.41c3.82,7.38,7.17,13,9.68,14.29S24.84,413,24,411.06Z" transform="translate(-1 -367.73)"/><path class="cls-8" d="M9.3,400.41c.81,1.55,1.59,3,2.35,4.41,3.15,3.85,7.41,7.19,12,5.63-1-1.89-3-4.39-4.31-7.13Z" transform="translate(-1 -367.73)"/><path class="cls-2" d="M17,381.07c1.88-2,6.14,8.21,6.11,10.79s-3.43-4.49-7.16-6.66S17,381.07,17,381.07Z" transform="translate(-1 -367.73)"/><path class="cls-15" d="M10.46,399.17c-6.55-1.86-5.41,3.26,1.49,4Z" transform="translate(-1 -367.73)"/><path class="cls-20" d="M9.51,399.58c-2.27-.75-2.41,1.68,1.78,2.29Z" transform="translate(-1 -367.73)"/><path class="cls-15" d="M6.29,391.64c1.48,6.47,4.92,11.69,8.29,13.79,3.61,2.24,8.64,1.8,13,.34,8.48-2.82,1.46-5.72,1.46-5.72s-4.4-11.95-13.15-17.2C13.2,381.21,5.67,389,6.29,391.64Z" transform="translate(-1 -367.73)"/><path class="cls-8" d="M19,385.07a21.71,21.71,0,0,0-3.06-2.22c-2.72-1.64-10.25,6.1-9.63,8.79a28.06,28.06,0,0,0,3.92,9.28,21,21,0,0,1-.6-8.85C13.51,391,18.11,389,19,385.07Z" transform="translate(-1 -367.73)"/><path class="cls-21" d="M29.07,400.05s-4.35-11.83-13-17.12a37.78,37.78,0,0,1,7.55,16.58C26.86,399.33,31,401,30,404.6l-.07.21C34.58,402.33,29.07,400.05,29.07,400.05Z" transform="translate(-1 -367.73)"/><path class="cls-2" d="M10.75,394.75a20,20,0,0,0,2.58-3.07c1.69-2.28-.07-2.57-1.22-2.25S8.44,396.87,10.75,394.75Z" transform="translate(-1 -367.73)"/><path class="cls-2" d="M21.79,387.89c-.42-.28-4.21-2.85-5-1.81s-.84,2.52.68,2.14C19.87,387.63,23.23,388.86,21.79,387.89Z" transform="translate(-1 -367.73)"/><path class="cls-22" d="M21,391.71a2.64,2.64,0,0,1-.84-1,2.06,2.06,0,0,1-.21-.62,2.33,2.33,0,0,1,0-.4,1.33,1.33,0,0,1,.16-.6,1.06,1.06,0,0,1,.89-.54,1.19,1.19,0,0,1,.56.12,1.85,1.85,0,0,1,.57.4,2.81,2.81,0,0,1,.7,1.09l0,.07c-.34-.17-.67-.35-1-.53a3.22,3.22,0,0,0-.5-.23c-.17-.06-.35-.07-.4.06a1,1,0,0,0-.06.5,5.14,5.14,0,0,0,.06.55c.07.37.15.74.22,1.11Z" transform="translate(-1 -367.73)"/><path class="cls-22" d="M16,394a4.22,4.22,0,0,0-1.07-.64,1.16,1.16,0,0,0-.58-.07.67.67,0,0,0-.44.33,2.19,2.19,0,0,0-.25,1.17,7.59,7.59,0,0,0,.14,1.25l-.08,0a2.38,2.38,0,0,1-.78-1.25,2.43,2.43,0,0,1-.07-.77,2.06,2.06,0,0,1,.28-.91,2,2,0,0,1,.43-.44,1.51,1.51,0,0,1,.61-.23,1.55,1.55,0,0,1,1,.23,2,2,0,0,1,.87,1.24Z" transform="translate(-1 -367.73)"/><path class="cls-23" d="M25.82,401.39a3.11,3.11,0,0,1-1.31,2.74c-1.48,1-5.44.09-6.81-3.89a15.18,15.18,0,0,0,5-2.82C23.11,401.36,25.82,401.39,25.82,401.39Z" transform="translate(-1 -367.73)"/><path class="cls-24" d="M17.7,400.24a7.33,7.33,0,0,0,.49,1.1A24.27,24.27,0,0,0,24,399.12a6,6,0,0,0-1.31-1.7A15.18,15.18,0,0,1,17.7,400.24Z" transform="translate(-1 -367.73)"/><path class="cls-25" d="M22.64,404.14a6.56,6.56,0,0,0,2.85-2.29v-.09s-3.2-1.57-4.37,1.78A4.38,4.38,0,0,0,22.64,404.14Z" transform="translate(-1 -367.73)"/><path class="cls-24" d="M25.4,401.27a12.88,12.88,0,0,1-4.26,2.53,3.46,3.46,0,0,0,3.19.16,2.73,2.73,0,0,0,1.15-2.4Z" transform="translate(-1 -367.73)"/><path class="cls-20" d="M23.58,396.36a5.79,5.79,0,0,1-1.4,1.6,11.1,11.1,0,0,1-1.78,1.16c-1.27.64-2.6,1.11-3.91,1.64l0-.07a9.59,9.59,0,0,1,1.78-1.23c.3-.18.61-.33.91-.5s.62-.31.91-.48.6-.31.89-.47.58-.33.87-.49a14.3,14.3,0,0,0,1.69-1.2Z" transform="translate(-1 -367.73)"/><path class="cls-20" d="M25.63,404.4a3.64,3.64,0,0,0,.57-.54,3,3,0,0,0,.41-.65,3.36,3.36,0,0,0,.24-.74,4.13,4.13,0,0,0,.08-.78H27a1.38,1.38,0,0,1,.41.89,1.75,1.75,0,0,1-.15.93,1.79,1.79,0,0,1-.62.74,1.35,1.35,0,0,1-1,.22Z" transform="translate(-1 -367.73)"/><path class="cls-26" d="M16.06,389.25c.59.25,5.9,3.68,7,5.19s-1.08.88-2.44,1.86S14.53,388.6,16.06,389.25Z" transform="translate(-1 -367.73)"/><path class="cls-27" d="M21.26,395.26c.88-.21,1.57-.23.92-1.13-.87-1.2-4.8-3.8-5.86-4.4C18,391.55,19.65,393.38,21.26,395.26Z" transform="translate(-1 -367.73)"/><path class="cls-2" d="M7.37,384.52c-6.82,1-10.76,6.71,1.93,15.89,2.62,1.89-1.79-2-1.8-8.22C7.49,388.29,10.3,384.11,7.37,384.52Z" transform="translate(-1 -367.73)"/><path class="cls-28" d="M7.37,384.52a11.65,11.65,0,0,0-2.24.53,4.6,4.6,0,0,0-.08.72A8.81,8.81,0,0,0,5.53,389a11.22,11.22,0,0,0,2,3.36v-.12C7.49,388.29,10.3,384.11,7.37,384.52Z" transform="translate(-1 -367.73)"/><path class="cls-2" d="M6.65,386.84c5.16,3.14,13.56-1,13.63-9.48S16.77,368,15,370.47,4.31,385.41,6.65,386.84Z" transform="translate(-1 -367.73)"/><path class="cls-29" d="M14.28,371.53l-1.19,1.71c.64,1.6,1.54,3.15,1.49,4.89a11.79,11.79,0,0,1-1.87,6.18,20.68,20.68,0,0,1-2,2.5,12.42,12.42,0,0,0,3.37-3.54A10.42,10.42,0,0,0,14.28,371.53Z" transform="translate(-1 -367.73)"/><path class="cls-29" d="M15.53,369.89a11.64,11.64,0,0,1,1.25,12.84,17.63,17.63,0,0,1-3.83,4.8,10.38,10.38,0,0,0,7.33-10.17C20.35,369.63,17.38,368.19,15.53,369.89Z" transform="translate(-1 -367.73)"/><ellipse class="cls-30" cx="431.11" cy="58.57" rx="4.37" ry="7.68"/></g></g></svg>