<svg xmlns="http://www.w3.org/2000/svg" xmlns:xlink="http://www.w3.org/1999/xlink" viewBox="0 0 441.71 177.02"><defs><style>.cls-1{fill:none;}.cls-2{isolation:isolate;}.cls-3{fill:#823349;}.cls-4{fill:#db9579;}.cls-5{fill:#9f3e59;}.cls-6{fill:#f0d4c9;}.cls-11,.cls-6,.cls-9{mix-blend-mode:multiply;}.cls-7{fill:#e6a185;}.cls-8{fill:#6eb7c2;}.cls-9{fill:#d1dee0;}.cls-10{fill:#1f0c11;}.cls-10,.cls-12,.cls-13,.cls-20,.cls-24{mix-blend-mode:screen;}.cls-11{fill:#f0c7d2;}.cls-12{fill:#4d1e2b;}.cls-13{fill:#4a3730;}.cls-14{fill:#963550;}.cls-15,.cls-24{fill:#662e1e;}.cls-16{clip-path:url(#clip-path);}.cls-17{mix-blend-mode:hard-light;fill:url(#radial-gradient);}.cls-18{fill:#b07261;}.cls-19{fill:#bf665a;}.cls-20{fill:#572e29;}.cls-21{fill:#2b231f;}.cls-22{fill:#943b3b;}.cls-23{fill:#fff;}.cls-25{fill:#f3f3f3;}</style><clipPath id="clip-path" transform="translate(-8.8 -270.66)"><path class="cls-1" d="M397.33,287c-4.43,8.24,6.37,18.75,8.84,17.67s8.5-5.71,8.85-10.63c0,0,3.37-.07,2.84-3.2s-3.72-.07-3.72-.07a9.31,9.31,0,0,0-6.2-6.94C402.46,281.9,398.94,284,397.33,287Z"/></clipPath><radialGradient id="radial-gradient" cx="457.98" cy="116.11" r="6.55" gradientTransform="matrix(1.78, -0.35, 0.09, 0.45, -423.67, 403.3)" gradientUnits="userSpaceOnUse"><stop offset="0" stop-color="#a16262"/><stop offset="1" stop-color="gray"/></radialGradient></defs><title>bg_new</title><g class="cls-2"><g id="people"><path class="cls-3" d="M388.15,364.26c-4.11-4-8-4.55-8.73-4.18s7.19,11.67,8.29,12.11,3.59-2.79,3.81-3.45S388.15,364.26,388.15,364.26Z" transform="translate(-8.8 -270.66)"/><path class="cls-4" d="M390.64,367.86l.33-.27a41.77,41.77,0,0,0-2.82-3.33c-.52-.49-1-.94-1.53-1.34C387.18,365.31,388.79,368.45,390.64,367.86Z" transform="translate(-8.8 -270.66)"/><path class="cls-3" d="M412.6,401.5c-5.59,1.14-8.28,4-8.39,4.82s13.69.69,14.67,0-.26-4.55-.67-5.1S412.6,401.5,412.6,401.5Z" transform="translate(-8.8 -270.66)"/><path class="cls-4" d="M412.6,401.5l-.2.05c0,.54,2.23,2.11,6.18.53a3.93,3.93,0,0,0-.37-.82C417.79,400.7,412.6,401.5,412.6,401.5Z" transform="translate(-8.8 -270.66)"/><path class="cls-5" d="M370.81,307.42c1,1.64.46,3.4.59,4.23l2.68.43a7.71,7.71,0,0,1,0-5A20,20,0,0,1,370.81,307.42Z" transform="translate(-8.8 -270.66)"/><path class="cls-4" d="M372,308.42c-1.13-3.51-2.57-2.63-4.18-2.92s-1.62-2.09-2.21-1.89-1.17.86-.36,2.18,1.69,1.1,1.54,1.33-3.3-.15-4.55-.15-4-.42-4.11.6,3.74,1.08,4.7,1.89.58,2.5,1.9,3.38,5.58.22,7.27-1.18A14.19,14.19,0,0,0,372,308.42Z" transform="translate(-8.8 -270.66)"/><path class="cls-6" d="M372,311.66a14.19,14.19,0,0,0,0-3.24c-1.13-3.51-2.57-2.63-4.18-2.92a1.89,1.89,0,0,1-.36-.1,6.1,6.1,0,0,0-1.79,1c.66.69,1.24.57,1.12.76a5.75,5.75,0,0,1-1.8,0,3.2,3.2,0,0,0,0,3.07,10.35,10.35,0,0,0,1.57,3A9.54,9.54,0,0,0,372,311.66Z" transform="translate(-8.8 -270.66)"/><path class="cls-6" d="M366.11,306.05l-.43.31c.66.69,1.24.57,1.12.76a2.28,2.28,0,0,1-1,.05,8.62,8.62,0,0,0,4.35,2.53A12.52,12.52,0,0,1,366.11,306.05Z" transform="translate(-8.8 -270.66)"/><path class="cls-7" d="M361.74,310.27c.09,1.4,3.45.58,4.55,0s.07-1.32-1.22-1.18S361.66,309.17,361.74,310.27Z" transform="translate(-8.8 -270.66)"/><path class="cls-7" d="M363,312.29c.25,1.17,3,.08,3.85-.54s-.1-1.13-1.17-.85S362.79,311.37,363,312.29Z" transform="translate(-8.8 -270.66)"/><path class="cls-7" d="M364.35,313.68c.33,1,2.51-.25,3.16-.87s-.2-.93-1.06-.58S364.09,312.93,364.35,313.68Z" transform="translate(-8.8 -270.66)"/><path class="cls-8" d="M422.92,329.43c-7.92,1.6-28.61,5.37-34.62,35.25l2.49,2.89s13.38-27.94,31-27.47c1.65,0,5.07,1.38,5.56,3.4-21.42,17-20.35,47.75-12.25,58.28l.31.1a17.14,17.14,0,0,0,2.59-.33c-1.4-6.84-6.57-40.67,23.68-55.4,0,0,7,.75,7.78-7.88C449.48,338.27,441.85,331.06,422.92,329.43Z" transform="translate(-8.8 -270.66)"/><path class="cls-9" d="M446.55,336.19a19.82,19.82,0,0,1-12.22,8.55c-6.4,6.47-12.47,13.12-15.44,21.54-3.53,10.59-5.58,24.15-2.71,35.53.62-.06,1.23-.14,1.84-.26-1.4-6.84-6.57-40.67,23.68-55.4,0,0,7,.75,7.78-7.88A19.25,19.25,0,0,0,446.55,336.19Z" transform="translate(-8.8 -270.66)"/><path class="cls-9" d="M421.81,340.1a8.34,8.34,0,0,1,4.42,1.76,4.17,4.17,0,0,0-.13-2.79c-1.11-2.77-5-3.33-7.77-2.22-13.61,3.53-24.92,14.83-29.81,28.1l2.27,2.62S404.17,339.63,421.81,340.1Z" transform="translate(-8.8 -270.66)"/><path class="cls-9" d="M431.1,338a80.13,80.13,0,0,0,8.36-5.08c-1.09-.39-2.27-.78-3.56-1.14-3,1.68-5.93,3.4-8.93,5.1C428.07,338.51,429.59,338.47,431.1,338Z" transform="translate(-8.8 -270.66)"/><path class="cls-9" d="M449.48,338.27s-7.63-7.21-26.56-8.84l-1.61.33a54.22,54.22,0,0,1,10.35,4.87,61.86,61.86,0,0,1,11.47,11.46C445.22,345.8,448.93,344.41,449.48,338.27Z" transform="translate(-8.8 -270.66)"/><path class="cls-3" d="M374.8,306.72c-1.43,0-2.6,5.31-.3,6.34,8.73,3.88,24.8,5.13,37.46,1.88,0,0-.4-11.46-2-13.87C410,301.07,399,306.14,374.8,306.72Z" transform="translate(-8.8 -270.66)"/><path class="cls-10" d="M410,301.07s-5.47,2.52-17.22,4.21a21.06,21.06,0,0,0,2,5.63,57.16,57.16,0,0,0,16.72-3.2C411.14,304.91,410.68,302.12,410,301.07Z" transform="translate(-8.8 -270.66)"/><path class="cls-10" d="M392.49,311l.79,0a22,22,0,0,1-1.36-3.64A26.3,26.3,0,0,0,392.49,311Z" transform="translate(-8.8 -270.66)"/><path class="cls-10" d="M374.8,306.72c-.5,0-.95.66-1.25,1.53A64.47,64.47,0,0,0,391.08,311a29.19,29.19,0,0,1-.65-5.36C386,306.15,380.82,306.57,374.8,306.72Z" transform="translate(-8.8 -270.66)"/><path class="cls-11" d="M410,301.07a36.15,36.15,0,0,1-4.41,1.53A14.34,14.34,0,0,0,404,316.37a58.45,58.45,0,0,0,8-1.43S411.56,303.48,410,301.07Z" transform="translate(-8.8 -270.66)"/><path class="cls-5" d="M407.31,301c-3.68,1.76-5.44,13.62,4.65,19.78s8.54,9.17,8.54,9.17,18.07,3.57,27.85,15.49c0,0,6.26-12.43-2.54-23.75S433.93,301,433.93,301,423,293.53,407.31,301Z" transform="translate(-8.8 -270.66)"/><path class="cls-11" d="M442.58,317.25A19.94,19.94,0,0,1,436.1,323c-4.35,2.61-10.73,1.81-15.17-1.85,5.73,9.61,20.92,16.6,27.94,9.07a9.71,9.71,0,0,0,.79-1,21.94,21.94,0,0,0-3.85-7.49C444.63,320.15,443.56,318.67,442.58,317.25Z" transform="translate(-8.8 -270.66)"/><path class="cls-12" d="M413.86,314c5.53,1,10.6-2.77,13.6-7.11a31.78,31.78,0,0,0,2.15-3.61c-1.46-.29-2.94-.54-4.42-.73-.53,3.57-2.6,7.68-6.12,9-5.67,2.2-11.33-3.2-11.18-8.72-.87.15-1.74.31-2.59.5a9.87,9.87,0,0,0-.51,1.48C406.2,309.1,409.6,313.24,413.86,314Z" transform="translate(-8.8 -270.66)"/><path class="cls-12" d="M431.05,310.34a31.89,31.89,0,0,0,2.82-6c-.73-.2-1.47-.4-2.21-.57a24,24,0,0,1-7,8.75c-4,3.08-9.95,5-14.54,1.82a19.77,19.77,0,0,1-5.69-6,14.26,14.26,0,0,0,.69,4C412.44,319.67,425.16,320,431.05,310.34Z" transform="translate(-8.8 -270.66)"/><path class="cls-12" d="M421.9,322.38a24.28,24.28,0,0,0,2.34-.72c-.76-.64-1.54-1.25-2.34-1.84a31.56,31.56,0,0,1,5.33.52,22.71,22.71,0,0,0,7.85-6.84,40.11,40.11,0,0,0,2.63-4.22c-.79-1.48-1.45-2.81-2-3.95a25.49,25.49,0,0,1-5.16,8.88c-6.37,6.91-16.09,6.91-23.32,2.29a16.2,16.2,0,0,0,4.71,4.26l.19.12,1.58,1A13.73,13.73,0,0,0,421.9,322.38Z" transform="translate(-8.8 -270.66)"/><path class="cls-12" d="M425.71,323a19.89,19.89,0,0,1-5.35,1.38,16.38,16.38,0,0,1-3.28,0,15.63,15.63,0,0,1,2.47,2.57,15.66,15.66,0,0,0,8.6-1.25A23.15,23.15,0,0,0,425.71,323Z" transform="translate(-8.8 -270.66)"/><path class="cls-12" d="M422.49,328.67c2.82.74,5.67,1.51,8.42,2.48a15.84,15.84,0,0,0-1.94-4.26A19.76,19.76,0,0,1,422.49,328.67Z" transform="translate(-8.8 -270.66)"/><path class="cls-12" d="M440.19,313.57c-.53-.87-1-1.7-1.48-2.5a29.15,29.15,0,0,1-4.7,6.33,27.28,27.28,0,0,1-4.33,3.5,24.61,24.61,0,0,1,3.68,1.35,31.52,31.52,0,0,0,6.09-7.42C439.71,314.41,440,314,440.19,313.57Z" transform="translate(-8.8 -270.66)"/><path class="cls-12" d="M441.21,315.19a41.55,41.55,0,0,1-3.26,4.67,28.43,28.43,0,0,1-3.06,3.15c.59.33,1.17.68,1.74,1.06,2.77-1.35,4.39-4.37,5.23-7.89C441.64,315.84,441.42,315.52,441.21,315.19Z" transform="translate(-8.8 -270.66)"/><path class="cls-7" d="M409.58,303.91c.22,5.69,4.57,6.42,6.85,5.95,3.78-.78,5.11-4.1,5-7.35C421.39,302.51,416.33,301.07,409.58,303.91Z" transform="translate(-8.8 -270.66)"/><path class="cls-6" d="M410.93,303.39c-.44.15-.89.32-1.35.52.16,4,2.32,5.52,4.39,5.94A8.59,8.59,0,0,1,410.93,303.39Z" transform="translate(-8.8 -270.66)"/><path class="cls-7" d="M419.47,318.41c.52-3.52-.32-4-1.18-5.57-.36-.66-.31-2.06-.77-1.76a3.64,3.64,0,0,0-.32,3.65c.73,1.26-1.79-.57-2.43-1.74s0-1.77-.36-2.35c-.49-.82-1.6.51-.87,2.64s.59,1.78,0,1.18a5.78,5.78,0,0,1-.89-3.09c0-.73-1.76.22-1.17,2.06A5.32,5.32,0,0,0,413,316c.44.59-1.69-.88-2.13-2.12s-1.54.66,0,2.05c.73.66,1.32,1,1.39,1.32s-1.92.16-2-1-1.54.44,0,1.62a18.83,18.83,0,0,0,9,3.59l1.23-2.2Z" transform="translate(-8.8 -270.66)"/><path class="cls-13" d="M413.85,314.78l-.31-.32a5.78,5.78,0,0,1-.89-3.09c0-.73-1.76.22-1.17,2.06A5.32,5.32,0,0,0,413,316c.44.59-1.69-.88-2.13-2.12s-1.54.66,0,2.05c.73.66,1.32,1,1.39,1.32s-1.92.16-2-1-1.54.44,0,1.62a16.24,16.24,0,0,0,3.21,1.92A5.42,5.42,0,0,1,413.85,314.78Z" transform="translate(-8.8 -270.66)"/><path class="cls-13" d="M415,313.37l-.14-.19a1.45,1.45,0,0,1-.12-.19c-.65-1.18,0-1.77-.36-2.35-.49-.82-1.6.51-.87,2.64.22.64.36,1.05.43,1.3A5.76,5.76,0,0,1,415,313.37Z" transform="translate(-8.8 -270.66)"/><path class="cls-6" d="M420.5,319.22l-1-.81c.07-.46.11-.86.14-1.23a6.52,6.52,0,0,0-3.5,2.46,3.77,3.77,0,0,0-.2,1,25.54,25.54,0,0,0,3.36.77Z" transform="translate(-8.8 -270.66)"/><path class="cls-14" d="M421.41,318.78l-1.5-.81s-2.88.74-1.81,3.45c.28.71,2.4,1.87,2.4,1.87S419.45,321.86,421.41,318.78Z" transform="translate(-8.8 -270.66)"/><path class="cls-3" d="M433.93,301c-4.66-1.65-8.81,3.55-4,10.06,3.79,5.09,6.46,7.65,3.82,9s-7.48-2-12-2c0,0-4.46,1.89-1.31,5.94,0,0,16.36,8.87,23.7,4.84S439.5,303,433.93,301Z" transform="translate(-8.8 -270.66)"/><path class="cls-10" d="M438.62,318.33c-.76-3.36-2.75-6.45-4.74-9.24-1.11-2.22-2.22-5-1.67-7.78a5.81,5.81,0,0,1,.21-.63c-3.95-.18-6.76,4.57-2.46,10.36a60.75,60.75,0,0,1,4.44,6.14A12.12,12.12,0,0,1,438.62,318.33Z" transform="translate(-8.8 -270.66)"/><path class="cls-10" d="M432.24,320.46c2.47.87,6.52,2.52,6.64,2,0-.1,0-.2,0-.3A8.16,8.16,0,0,0,432.24,320.46Z" transform="translate(-8.8 -270.66)"/><path class="cls-10" d="M420.5,323.91a61.34,61.34,0,0,0,14.17,5.35,40.52,40.52,0,0,1-15.14-9C419.21,321.19,419.32,322.4,420.5,323.91Z" transform="translate(-8.8 -270.66)"/><path class="cls-15" d="M420.21,289.59a3.19,3.19,0,1,1-3.18-3.18A3.18,3.18,0,0,1,420.21,289.59Z" transform="translate(-8.8 -270.66)"/><path class="cls-4" d="M417.91,303.55c-.94-1.41-3.71-5-4.81-7.54l-5,3.81c1.44,3.38,4.24,7.56,6.06,7.3S418.85,305,417.91,303.55Z" transform="translate(-8.8 -270.66)"/><path class="cls-6" d="M415,300.2l.21-.54A26,26,0,0,1,413.1,296l-5,3.81a24.31,24.31,0,0,0,2.32,4.23A6.22,6.22,0,0,0,415,300.2Z" transform="translate(-8.8 -270.66)"/><path class="cls-7" d="M397.33,287c-4.43,8.24,6.37,18.75,8.84,17.67s8.5-5.71,8.85-10.63c0,0,3.37-.07,2.84-3.2s-3.72-.07-3.72-.07a9.31,9.31,0,0,0-6.2-6.94C402.46,281.9,398.94,284,397.33,287Z" transform="translate(-8.8 -270.66)"/><path class="cls-13" d="M400.14,284.08a7.37,7.37,0,0,0-2.81,2.95c-4.43,8.24,6.37,18.75,8.84,17.67a7.25,7.25,0,0,0,1.09-.57,11.41,11.41,0,0,1-1.15-.59A15.9,15.9,0,0,1,400.14,284.08Z" transform="translate(-8.8 -270.66)"/><g class="cls-16"><path class="cls-17" d="M414.71,292.26c.32,1.63-4.64,4-11.08,5.27s-11.94,1-12.26-.66,4.64-4,11.08-5.27S414.39,290.62,414.71,292.26Z" transform="translate(-8.8 -270.66)"/></g><path class="cls-6" d="M414.14,290.8a9.31,9.31,0,0,0-6.2-6.94c-5.48-2-9,.17-10.61,3.17a9.7,9.7,0,0,0-.52,7.62h.42c.48-1,1.39-1.94,1.24-3.28a4.14,4.14,0,0,0,3.5-2.89,2.77,2.77,0,0,0,2.17-1.47c1.63,2.65,4.87,4.25,7.93,3a5.36,5.36,0,0,1,.7,2.66,4.41,4.41,0,0,0,1.72-2.17C414.27,290.67,414.14,290.8,414.14,290.8Z" transform="translate(-8.8 -270.66)"/><path class="cls-18" d="M414.85,291a2.64,2.64,0,0,1,.17.51c.69-.51.91.8.13,1a4.73,4.73,0,0,1,0,.82C417,292.25,416.48,289.87,414.85,291Z" transform="translate(-8.8 -270.66)"/><path class="cls-15" d="M405.43,292.78a1.53,1.53,0,0,1-.34-1.26,1.5,1.5,0,0,1,.37-.73,1.53,1.53,0,0,1,.83-.39,1.69,1.69,0,0,1,1.77,1.84l-.06,0a2.77,2.77,0,0,0-.67-.85,1.37,1.37,0,0,0-1-.33.9.9,0,0,0-.76.62,2.39,2.39,0,0,0-.1,1.07Z" transform="translate(-8.8 -270.66)"/><path class="cls-15" d="M399.69,294a2.6,2.6,0,0,0-.65-.59,1.11,1.11,0,0,0-.81-.18.8.8,0,0,0-.61.5,1.24,1.24,0,0,0,0,.85l-.06,0a1,1,0,0,1-.44-1.06,1.12,1.12,0,0,1,.32-.63,1.33,1.33,0,0,1,.67-.36,1.41,1.41,0,0,1,1.63,1.41Z" transform="translate(-8.8 -270.66)"/><path class="cls-19" d="M401,290.53c-.26.66.43,2.82-.26,5-1,3,3,.22,3,.22C403.34,293.55,401.66,288.94,401,290.53Z" transform="translate(-8.8 -270.66)"/><path class="cls-20" d="M401.86,295.6a10.21,10.21,0,0,0-.59-1.66,4.86,4.86,0,0,1-.17,1.81c-.33,1,.31.89.9.61C402,296.11,401.92,295.85,401.86,295.6Z" transform="translate(-8.8 -270.66)"/><path class="cls-21" d="M407.85,297a17.78,17.78,0,0,1-6.23.71,4.83,4.83,0,0,1-.12.85,4,4,0,0,1,1.2,2c1.23,3.41,4.46.29,5.19-3.43Z" transform="translate(-8.8 -270.66)"/><path class="cls-22" d="M402.67,300.44l0,.09c.87,2.43,2.77,1.54,4.05-.52a3.66,3.66,0,0,0-.55-.71A2.8,2.8,0,0,0,402.67,300.44Z" transform="translate(-8.8 -270.66)"/><path class="cls-23" d="M407.85,297a17.49,17.49,0,0,1-6.86.65c-.15.52-.32,1-.47,1.56a9.68,9.68,0,0,0,7-.78,4.22,4.22,0,0,0,.34-1.3Z" transform="translate(-8.8 -270.66)"/><path class="cls-18" d="M407.32,296.77a18.62,18.62,0,0,1-3.47.73,15.42,15.42,0,0,1-4.18-.09,15.56,15.56,0,0,0,4.2.46,18.42,18.42,0,0,0,4.23-.58A3,3,0,0,1,407.32,296.77Z" transform="translate(-8.8 -270.66)"/><path class="cls-18" d="M406.62,296a11.15,11.15,0,0,0,1.41.74c.48.22,1,.37,1.49.55l0,.05a2.29,2.29,0,0,1-.88.11,2.64,2.64,0,0,1-.82-.19,2.74,2.74,0,0,1-.71-.47,2,2,0,0,1-.49-.74Z" transform="translate(-8.8 -270.66)"/><path class="cls-18" d="M405.4,302.48a1,1,0,0,1-.19.7,1,1,0,0,1-.55.35,1,1,0,0,1-.7-.1.76.76,0,0,1-.41-.64l0-.07a1.2,1.2,0,0,0,.91.09,2.3,2.3,0,0,0,.86-.39Z" transform="translate(-8.8 -270.66)"/><path class="cls-15" d="M403.74,287.76c-.54.06-.19,1.07-.19,1.64,1.1.09,4.14-.57,6.25.51C409.52,288.07,405.37,287.6,403.74,287.76Z" transform="translate(-8.8 -270.66)"/><path class="cls-15" d="M395.62,293a15.52,15.52,0,0,1,3.75-2.58c.41-.16.28-1.6-.42-1.51C397.78,289.08,394.55,293.91,395.62,293Z" transform="translate(-8.8 -270.66)"/><path class="cls-15" d="M411.31,286.94c-.11,1.89,1,4.07.63,7.16,2.19-.57,2.28-.91,2.2-3.3C414.09,289.51,411.37,285.9,411.31,286.94Z" transform="translate(-8.8 -270.66)"/><path class="cls-15" d="M417.88,282.34a4.41,4.41,0,0,0,.24-1.42,4.33,4.33,0,0,0-1-2.76,2.91,2.91,0,0,0-3.82-3.89,4.64,4.64,0,0,0-8.69-1,3.06,3.06,0,0,0-4,1.3,4.64,4.64,0,0,0-7.28,5.42,3.89,3.89,0,0,0-1.6,7.17,1.31,1.31,0,0,0-.41,1,1.36,1.36,0,0,0,.94,1.29,2.67,2.67,0,0,0-.16.85,2.53,2.53,0,0,0,5,0,2.55,2.55,0,0,0-.15-.84,2.34,2.34,0,0,0,2.14-1.45,3.44,3.44,0,0,0,.46,0,3.63,3.63,0,0,0,3.51-2.71,2.66,2.66,0,0,0,.85.15,2.71,2.71,0,0,0,1.82-.71,3.82,3.82,0,0,0,3.8,3.54,3.65,3.65,0,0,0,1.29-.23,2.88,2.88,0,0,0,5.46.38,3.37,3.37,0,0,0,1.55-6.08Z" transform="translate(-8.8 -270.66)"/><path class="cls-24" d="M418.08,282.51a7.5,7.5,0,0,1,.26,2.4,4.59,4.59,0,0,1-1.6,3.42,3.34,3.34,0,0,0,1.34-5.82Z" transform="translate(-8.8 -270.66)"/><path class="cls-24" d="M394.54,285.25c-.75-2.05-.11-5.23,1.16-6.51,2.07-2.1,5.28-3,7.59-1.76,1-2.05,3-3.6,5.45-3.16,2.75.5,3.65,2.19,4.06,4.34,2.33-.52,4.33,1.45,5.15,3.92a4,4,0,0,0,.17-1.16,4.33,4.33,0,0,0-1-2.76,2.91,2.91,0,0,0-3.82-3.89,4.64,4.64,0,0,0-8.69-1,3.06,3.06,0,0,0-4,1.3,4.64,4.64,0,0,0-7.28,5.42,3.89,3.89,0,0,0-1.6,7.17,1.31,1.31,0,0,0-.41,1,1.36,1.36,0,0,0,.94,1.29,2.67,2.67,0,0,0-.16.85,2.52,2.52,0,0,0,2.53,2.52,2.6,2.6,0,0,0,.84-.15C393.3,290.72,392.63,287.15,394.54,285.25Z" transform="translate(-8.8 -270.66)"/><rect class="cls-25" y="170.14" width="1.38" height="6.88"/><rect class="cls-25" x="429.57" y="173.58" width="1.81" height="1.81"/></g></g></svg>